<?xml version="1.0" ?><svg height="48px" id="svg1306" width="48px" xmlns="http://www.w3.org/2000/svg" xmlns:cc="http://creativecommons.org/ns#" xmlns:dc="http://purl.org/dc/elements/1.1/" xmlns:inkscape="http://www.inkscape.org/namespaces/inkscape" xmlns:rdf="http://www.w3.org/1999/02/22-rdf-syntax-ns#" xmlns:sodipodi="http://sodipodi.sourceforge.net/DTD/sodipodi-0.dtd" xmlns:svg="http://www.w3.org/2000/svg" xmlns:xlink="http://www.w3.org/1999/xlink"><defs id="defs1308"><linearGradient id="linearGradient3957"><stop id="stop3959" offset="0" style="stop-color:#fffeff;stop-opacity:0.33333334;"/><stop id="stop3961" offset="1" style="stop-color:#fffeff;stop-opacity:0.21568628;"/></linearGradient><linearGradient id="linearGradient2536"><stop id="stop2538" offset="0" style="stop-color:#a40000;stop-opacity:1;"/><stop id="stop2540" offset="1" style="stop-color:#ff1717;stop-opacity:1;"/></linearGradient><linearGradient id="linearGradient2479"><stop id="stop2481" offset="0" style="stop-color:#ffe69b;stop-opacity:1;"/><stop id="stop2483" offset="1" style="stop-color:#ffffff;stop-opacity:1;"/></linearGradient><linearGradient id="linearGradient4126"><stop id="stop4128" offset="0" style="stop-color:#000000;stop-opacity:1;"/><stop id="stop4130" offset="1" style="stop-color:#000000;stop-opacity:0;"/></linearGradient><radialGradient cx="23.857143" cy="40.000000" fx="23.857143" fy="40.000000" gradientTransform="matrix(1.000000,0.000000,0.000000,0.500000,1.899196e-14,20.00000)" gradientUnits="userSpaceOnUse" id="radialGradient2169" r="17.142857" xlink:href="#linearGradient4126"/><linearGradient gradientUnits="userSpaceOnUse" id="linearGradient2485" x1="43.93581" x2="20.064686" xlink:href="#linearGradient2479" y1="53.835983" y2="-8.5626707"/><linearGradient gradientUnits="userSpaceOnUse" id="linearGradient2542" x1="36.917976" x2="19.071495" xlink:href="#linearGradient2536" y1="66.288063" y2="5.5410109"/><linearGradient gradientUnits="userSpaceOnUse" id="linearGradient3046" x1="36.917976" x2="19.071495" xlink:href="#linearGradient2536" y1="66.288063" y2="5.5410109"/><linearGradient gradientUnits="userSpaceOnUse" id="linearGradient3048" x1="43.93581" x2="20.064686" xlink:href="#linearGradient2479" y1="53.835983" y2="-8.5626707"/><linearGradient gradientUnits="userSpaceOnUse" id="linearGradient3064" x1="36.917976" x2="19.071495" xlink:href="#linearGradient2536" y1="66.288063" y2="5.5410109"/><linearGradient gradientUnits="userSpaceOnUse" id="linearGradient3066" x1="43.93581" x2="20.064686" xlink:href="#linearGradient2479" y1="53.835983" y2="-8.5626707"/><linearGradient gradientUnits="userSpaceOnUse" id="linearGradient3963" x1="21.993773" x2="20.917078" xlink:href="#linearGradient3957" y1="33.955299" y2="15.814602"/><radialGradient cx="23.857143" cy="40.000000" fx="23.857143" fy="40.000000" gradientTransform="matrix(1,0,0,0.5,1.893048e-14,20)" gradientUnits="userSpaceOnUse" id="radialGradient3976" r="17.142857" xlink:href="#linearGradient4126"/><linearGradient gradientUnits="userSpaceOnUse" id="linearGradient3978" x1="36.917976" x2="19.071495" xlink:href="#linearGradient2536" y1="66.288063" y2="5.5410109"/><linearGradient gradientUnits="userSpaceOnUse" id="linearGradient3980" x1="43.93581" x2="20.064686" xlink:href="#linearGradient2479" y1="53.835983" y2="-8.5626707"/><linearGradient gradientUnits="userSpaceOnUse" id="linearGradient3982" x1="21.993773" x2="20.917078" xlink:href="#linearGradient3957" y1="33.955299" y2="15.814602"/></defs><g id="layer2"><path d="M 41 40 A 17.142857 8.5714283 0 1 1  6.7142868,40 A 17.142857 8.5714283 0 1 1  41 40 z" id="path6548" style="opacity:0.6;color:#000000;fill:url(#radialGradient3976);fill-opacity:1;fill-rule:nonzero;stroke:none;stroke-width:1;stroke-linecap:butt;stroke-linejoin:miter;marker:none;marker-start:none;marker-mid:none;marker-end:none;stroke-miterlimit:10;stroke-dasharray:none;stroke-dashoffset:0;stroke-opacity:1;visibility:visible;display:block;overflow:visible" transform="matrix(1.070555,0,0,0.525,-0.892755,22.5)"/></g><g id="layer1"><g id="g4006"><path d="M 46.857143 23.928572 A 23.357143 23.357143 0 1 1  0.1428566,23.928572 A 23.357143 23.357143 0 1 1  46.857143 23.928572 z" id="path1314" style="fill:url(#linearGradient3978);fill-opacity:1;fill-rule:nonzero;stroke:#b20000;stroke-width:1.08638;stroke-linecap:butt;stroke-linejoin:miter;stroke-miterlimit:4;stroke-dasharray:none;stroke-opacity:1" transform="matrix(0.920488,0,0,0.920488,2.368532,0.97408)"/><path d="M 49.901535 26.635273 A 23.991123 23.991123 0 1 1  1.9192886,26.635273 A 23.991123 23.991123 0 1 1  49.901535 26.635273 z" id="path3560" style="opacity:0.34659089;fill:#cc0000;fill-opacity:0;stroke:url(#linearGradient3980);stroke-width:1.16809607;stroke-linecap:butt;stroke-linejoin:miter;stroke-miterlimit:4;stroke-dasharray:none;stroke-opacity:1" transform="matrix(0.856093,0,0,0.856093,1.818275,0.197769)"/></g></g><g id="layer3"><rect height="7.1735945" id="rect2070" style="fill:#efefef;fill-opacity:1;fill-rule:nonzero;stroke:none;stroke-width:0.73876643;stroke-miterlimit:4;stroke-dasharray:none;stroke-opacity:0.8627451" transform="matrix(1.005876,0,0,1.115201,-0.138045,-2.372708)" width="27.836435" x="10.078821" y="19.164932"/></g><g id="layer4"><path d="M 43.370686,21.715486 C 43.370686,32.546102 33.016357,15.449178 24.695948,22.101874 C 16.569626,28.599385 4.0989837,34.292422 4.0989837,23.461806 C 4.0989837,12.377753 12.79438,2.0948032 23.625,2.0948032 C 34.455619,2.0948032 43.370686,10.884868 43.370686,21.715486 z " id="path3955" style="fill:url(#linearGradient3982);fill-opacity:1;fill-rule:nonzero;stroke:none;stroke-width:1;stroke-linecap:round;stroke-linejoin:round;stroke-miterlimit:4;stroke-dashoffset:0;stroke-opacity:1" transform="matrix(1.002994,0,0,1.002994,-7.185874e-2,1.968356e-2)"/></g></svg>